<?xml version="1.0" encoding="utf-8"?><svg version="1.1" id="Layer_1" xmlns="http://www.w3.org/2000/svg" xmlns:xlink="http://www.w3.org/1999/xlink" x="0px" y="0px" viewBox="0 0 122.88 122.88" style="enable-background:new 0 0 122.88 122.88" xml:space="preserve"><style type="text/css">.st0{fill-rule:evenodd;clip-rule:evenodd;}</style><g><path class="st0" d="M17.46,49.63L8.22,33.62c-0.8-1.39-0.32-3.16,1.07-3.96c0.46-0.26,0.95-0.39,1.45-0.39v-0.01h18.52v-18.6 c0-1.61,1.31-2.92,2.92-2.92c0.61,0,1.17,0.19,1.64,0.5l15.82,9.2l9.29-16c0.81-1.39,2.59-1.86,3.97-1.06 c0.46,0.27,0.82,0.64,1.07,1.08l9.28,15.98l16-9.31c1.39-0.81,3.17-0.33,3.97,1.06c0.27,0.46,0.39,0.96,0.39,1.46l0.01,18.6h18.6 c1.61,0,2.92,1.31,2.92,2.92c0,0.61-0.19,1.17-0.5,1.64l-9.2,15.82l16,9.29c1.39,0.81,1.86,2.59,1.06,3.97 c-0.27,0.46-0.64,0.82-1.08,1.07l-15.98,9.28l9.31,16c0.81,1.39,0.33,3.17-1.06,3.97c-0.46,0.27-0.96,0.39-1.46,0.39l-18.6,0.01 v18.52c0,1.61-1.31,2.92-2.92,2.92c-0.63,0-1.21-0.2-1.69-0.54l-15.77-9.1l-9.29,16.01c-0.81,1.39-2.59,1.86-3.97,1.06 c-0.46-0.27-0.82-0.64-1.07-1.08l-9.28-15.99l-16.01,9.24c-1.39,0.8-3.16,0.32-3.96-1.07c-0.26-0.46-0.39-0.95-0.39-1.45h-0.01 V93.62H10.74c-1.61,0-2.92-1.31-2.92-2.92c0-0.63,0.2-1.21,0.54-1.69l9.1-15.77L1.45,63.96c-1.39-0.81-1.86-2.59-1.06-3.97 c0.27-0.46,0.64-0.82,1.08-1.07L17.46,49.63L17.46,49.63z M44.67,40.46c3.59,0,6.48,1.02,8.67,3.07c2.18,2.05,3.27,4.77,3.27,8.16 c0,3.4-1.09,6.12-3.27,8.17c-2.19,2.05-5.08,3.07-8.67,3.07c-3.59,0-6.47-1.03-8.66-3.07c-2.18-2.05-3.28-4.77-3.28-8.17 c0-3.39,1.1-6.12,3.28-8.16C38.2,41.48,41.08,40.46,44.67,40.46L44.67,40.46z M70.87,42.06h9.72L52.13,80.77h-9.72L70.87,42.06 L70.87,42.06z M44.67,49.13c-0.78,0-1.37,0.23-1.78,0.67c-0.41,0.45-0.62,1.08-0.62,1.9s0.21,1.46,0.62,1.91 c0.41,0.44,1,0.67,1.78,0.67c0.78,0,1.38-0.23,1.79-0.67c0.41-0.46,0.61-1.09,0.61-1.91s-0.2-1.45-0.61-1.9 C46.06,49.36,45.46,49.13,44.67,49.13L44.67,49.13z M78.2,59.93c3.59,0,6.47,1.03,8.66,3.07c2.18,2.05,3.28,4.77,3.28,8.17 c0,3.39-1.1,6.12-3.28,8.16c-2.19,2.05-5.07,3.07-8.66,3.07c-3.59,0-6.48-1.02-8.67-3.07c-2.18-2.05-3.27-4.77-3.27-8.16 c0-3.4,1.09-6.12,3.27-8.17C71.72,60.96,74.61,59.93,78.2,59.93L78.2,59.93z M78.2,68.6c-0.78,0-1.38,0.23-1.79,0.67 c-0.41,0.46-0.62,1.08-0.62,1.91c0,0.82,0.21,1.45,0.62,1.9c0.41,0.45,1.01,0.67,1.79,0.67c0.77,0,1.37-0.23,1.78-0.67 c0.41-0.45,0.62-1.08,0.62-1.9c0-0.83-0.21-1.46-0.62-1.91C79.58,68.82,78.98,68.6,78.2,68.6L78.2,68.6z"/></g></svg>